<svg width="41" height="30" viewBox="0 0 41 30" fill="none" xmlns="http://www.w3.org/2000/svg">
<path d="M31 17.9999C31.446 17.9999 31.874 17.9319 32.3 17.8699C32.162 18.3339 32.02 18.8059 31.792 19.2299C31.564 19.8459 31.208 20.3799 30.854 20.9179C30.558 21.4999 30.036 21.8939 29.652 22.3919C29.25 22.8759 28.702 23.1979 28.268 23.5999C27.842 24.0199 27.284 24.2299 26.84 24.5259C26.376 24.7919 25.972 25.0859 25.54 25.2259L24.462 25.6699L23.514 26.0639L24.484 29.9399L25.678 29.6519C26.06 29.5559 26.526 29.4439 27.056 29.3099C27.598 29.2099 28.176 28.9359 28.82 28.6859C29.456 28.4019 30.192 28.2099 30.876 27.7539C31.564 27.3179 32.358 26.9539 33.058 26.3699C33.736 25.7679 34.554 25.2459 35.158 24.4799C35.818 23.7639 36.47 23.0119 36.976 22.1559C37.562 21.3399 37.96 20.4439 38.38 19.5579C38.76 18.6719 39.066 17.7659 39.316 16.8859C39.79 15.1219 40.002 13.4459 40.084 12.0119C40.152 10.5759 40.112 9.38194 40.028 8.51794C39.998 8.10994 39.942 7.71394 39.902 7.43994L39.852 7.10394L39.8 7.11594C39.4443 5.45428 38.6254 3.92729 37.4381 2.71159C36.2508 1.49589 34.7435 0.641163 33.0907 0.246296C31.4379 -0.148571 29.7071 -0.0674496 28.0985 0.480278C26.4899 1.02801 25.0692 2.01996 24.0008 3.34138C22.9324 4.66281 22.2599 6.2597 22.0612 7.94735C21.8624 9.635 22.1455 11.3444 22.8778 12.8779C23.61 14.4114 24.7613 15.7062 26.1987 16.6126C27.6361 17.5191 29.3007 18.0001 31 17.9999ZM9.00002 17.9999C9.44602 17.9999 9.87402 17.9319 10.3 17.8699C10.162 18.3339 10.02 18.8059 9.79202 19.2299C9.56402 19.8459 9.20802 20.3799 8.85402 20.9179C8.55802 21.4999 8.03602 21.8939 7.65202 22.3919C7.25002 22.8759 6.70202 23.1979 6.26802 23.5999C5.84202 24.0199 5.28402 24.2299 4.84002 24.5259C4.37602 24.7919 3.97202 25.0859 3.54002 25.2259L2.46202 25.6699L1.51402 26.0639L2.48402 29.9399L3.67802 29.6519C4.06002 29.5559 4.52602 29.4439 5.05602 29.3099C5.59802 29.2099 6.17602 28.9359 6.82002 28.6859C7.45402 28.3999 8.19202 28.2099 8.87602 27.7519C9.56402 27.3159 10.358 26.9519 11.058 26.3679C11.736 25.7659 12.554 25.2439 13.158 24.4799C13.818 23.7639 14.47 23.0119 14.976 22.1559C15.562 21.3399 15.96 20.4439 16.38 19.5579C16.76 18.6719 17.066 17.7659 17.316 16.8859C17.79 15.1219 18.002 13.4459 18.084 12.0119C18.152 10.5759 18.112 9.38194 18.028 8.51794C17.998 8.10994 17.942 7.71394 17.902 7.43994L17.852 7.10394L17.8 7.11594C17.4443 5.45428 16.6254 3.92729 15.4381 2.71159C14.2508 1.49589 12.7435 0.641163 11.0907 0.246296C9.43794 -0.148571 7.70713 -0.0674496 6.09851 0.480278C4.48989 1.02801 3.06921 2.01996 2.0008 3.34138C0.9324 4.66281 0.259926 6.2597 0.0611839 7.94735C-0.137558 9.635 0.14555 11.3444 0.877754 12.8779C1.60996 14.4114 2.76134 15.7062 4.19872 16.6126C5.63609 17.5191 7.30071 18.0001 9.00002 17.9999Z" fill="#CAB8AB" fill-opacity="0.58"/>
</svg>
