<svg width="106" height="37" viewBox="0 0 106 37" fill="none" xmlns="http://www.w3.org/2000/svg">
<path d="M13.9663 11.5664C13.8748 11.7188 13.7731 11.8357 13.6613 11.917C13.5597 11.9882 13.4326 12.0238 13.2802 12.0238C13.1074 12.0238 12.9041 11.9374 12.6703 11.7646C12.4365 11.5918 12.1417 11.4037 11.7859 11.2004C11.4403 10.987 11.0185 10.7938 10.5204 10.621C10.0325 10.4482 9.43791 10.3618 8.73654 10.3618C8.07584 10.3618 7.49137 10.4533 6.98314 10.6363C6.48507 10.8091 6.06323 11.048 5.71763 11.3529C5.3822 11.6578 5.12808 12.0187 4.95528 12.4354C4.78248 12.842 4.69608 13.2842 4.69608 13.7619C4.69608 14.3718 4.84347 14.88 5.13825 15.2866C5.44319 15.683 5.83961 16.0236 6.32751 16.3082C6.82558 16.5928 7.38464 16.8418 8.00469 17.0553C8.6349 17.2586 9.27527 17.472 9.92581 17.6957C10.5865 17.9193 11.2269 18.1734 11.8469 18.458C12.4771 18.7325 13.0362 19.0831 13.5241 19.51C14.0222 19.937 14.4186 20.4604 14.7134 21.0805C15.0183 21.7005 15.1708 22.4629 15.1708 23.3675C15.1708 24.323 15.0082 25.2226 14.6829 26.0663C14.3576 26.8998 13.8799 27.6265 13.2497 28.2466C12.6296 28.8666 11.8622 29.3545 10.9474 29.7103C10.0427 30.0661 9.01099 30.244 7.85222 30.244C6.42916 30.244 5.13825 29.9898 3.97947 29.4816C2.8207 28.9632 1.82964 28.2669 1.0063 27.3928L1.86014 25.99C1.94145 25.8782 2.03802 25.7867 2.14983 25.7156C2.27181 25.6343 2.40395 25.5936 2.54625 25.5936C2.67839 25.5936 2.82578 25.6495 2.98842 25.7613C3.16122 25.863 3.35434 25.9951 3.5678 26.1578C3.78126 26.3204 4.02521 26.4983 4.29966 26.6914C4.57411 26.8845 4.88413 27.0624 5.22973 27.225C5.58549 27.3877 5.987 27.5249 6.43424 27.6367C6.88149 27.7384 7.38464 27.7892 7.9437 27.7892C8.64506 27.7892 9.27019 27.6926 9.81908 27.4995C10.368 27.3064 10.8305 27.037 11.2066 26.6914C11.5928 26.3356 11.8876 25.9138 12.0909 25.4259C12.2942 24.938 12.3958 24.3942 12.3958 23.7945C12.3958 23.1338 12.2434 22.595 11.9384 22.1783C11.6436 21.7514 11.2523 21.3956 10.7644 21.111C10.2765 20.8264 9.71744 20.5875 9.08722 20.3944C8.45701 20.1911 7.81664 19.9878 7.1661 19.7845C6.51556 19.571 5.87519 19.3271 5.24498 19.0526C4.61477 18.7782 4.05571 18.4224 3.5678 17.9853C3.0799 17.5483 2.68348 17.0045 2.37854 16.3539C2.08376 15.6932 1.93637 14.88 1.93637 13.9144C1.93637 13.1419 2.08376 12.3948 2.37854 11.6731C2.68348 10.9514 3.12056 10.311 3.68978 9.75196C4.26917 9.1929 4.97561 8.74565 5.80912 8.41022C6.65278 8.07478 7.61843 7.90707 8.70605 7.90707C9.92581 7.90707 11.0338 8.10019 12.0299 8.48645C13.0362 8.87271 13.9205 9.43177 14.6829 10.1636L13.9663 11.5664ZM53.6862 18.7325C54.54 18.7325 55.2922 18.6308 55.9428 18.4275C56.6035 18.2141 57.1523 17.9193 57.5894 17.5432C58.0367 17.1569 58.3721 16.6995 58.5957 16.171C58.8194 15.6424 58.9312 15.0579 58.9312 14.4175C58.9312 13.1165 58.5042 12.1356 57.6504 11.4749C56.7966 10.8142 55.5158 10.4838 53.8082 10.4838H50.5758V18.7325H53.6862ZM63.7797 30H61.1572C60.6185 30 60.2221 29.7916 59.968 29.3749L54.2961 21.5684C54.1233 21.3244 53.9352 21.1516 53.7319 21.05C53.5388 20.9382 53.2339 20.8823 52.8171 20.8823H50.5758V30H47.6331V8.15102H53.8082C55.1906 8.15102 56.3849 8.29332 57.3912 8.57793C58.3975 8.85238 59.2259 9.25389 59.8765 9.78245C60.5372 10.311 61.0251 10.9514 61.3402 11.7036C61.6553 12.4456 61.8129 13.2791 61.8129 14.2041C61.8129 14.9766 61.6909 15.6983 61.4469 16.3692C61.203 17.04 60.8472 17.6448 60.3796 18.1836C59.9222 18.7121 59.3581 19.1644 58.6872 19.5405C58.0265 19.9166 57.2743 20.2012 56.4307 20.3944C56.8067 20.6078 57.132 20.9179 57.4065 21.3244L63.7797 30ZM81.4496 27.591L81.4343 30H67.9712V8.15102H81.4343V10.56H70.9291V17.8176H79.437V20.1352H70.9291V27.591H81.4496ZM100.269 27.591L100.254 30H86.7906V8.15102H100.254V10.56H89.7485V17.8176H98.2563V20.1352H89.7485V27.591H100.269ZM99.4761 1.76252L94.5056 6.12316C94.3531 6.26547 94.2057 6.35187 94.0634 6.38236C93.9211 6.41286 93.7483 6.4281 93.545 6.4281H91.5934L95.1154 2.25042C95.2882 2.0268 95.461 1.88957 95.6338 1.83875C95.8168 1.78793 96.076 1.76252 96.4114 1.76252H99.4761Z" fill="#456658"/>
<path fill-rule="evenodd" clip-rule="evenodd" d="M39.0355 20.5444C38.2783 24.5518 34.7586 27.5827 30.5311 27.5827C26.3036 27.5827 22.7839 24.5518 22.0267 20.5444H19.3274C20.1119 26.0294 24.8291 30.2459 30.5311 30.2459C36.2331 30.2459 40.9503 26.0294 41.7348 20.5444H39.0355ZM21.8764 19.0226C21.8761 18.991 21.8759 18.9592 21.8759 18.9275C21.8759 14.1473 25.751 10.2723 30.5311 10.2723C35.3112 10.2723 39.1863 14.1473 39.1863 18.9275C39.1863 18.9592 39.1861 18.991 39.1858 19.0226H41.8491C41.8493 18.9909 41.8495 18.9592 41.8495 18.9275C41.8495 12.6765 36.7821 7.60913 30.5311 7.60913C24.2801 7.60913 19.2127 12.6765 19.2127 18.9275C19.2127 18.9592 19.2129 18.9909 19.2131 19.0226H21.8764Z" fill="#456658"/>
<path d="M28.8195 19.403C28.7826 19.1681 28.439 18.9275 28.439 18.9275L31.8631 18.4519C31.8631 18.4519 32.6872 18.9043 32.7191 19.403C32.7364 19.6729 32.5289 20.0688 32.5289 20.0688H31.7852C31.4293 20.3354 30.8425 20.83 30.8168 21.2102C30.7813 21.7369 31.8631 22.0662 31.8631 22.0662H28.0586C28.0586 22.0662 28.8394 21.6696 28.6293 21.2102C28.4629 20.8464 28.0586 19.8786 28.0586 19.8786L28.7469 19.6974C28.8002 19.6015 28.8345 19.4984 28.8195 19.403Z" fill="#ECB492"/>
<rect x="19.0228" y="19.4031" width="5.13606" height="0.760898" rx="0.380449" fill="#ECB492"/>
<rect x="34.4306" y="19.4031" width="7.60898" height="0.760898" rx="0.380449" fill="#ECB492"/>
<rect x="23.3978" y="18.2617" width="14.4571" height="0.760898" rx="0.380449" fill="#ECB492"/>
<path d="M30.3409 11.9844C26.8215 11.9844 23.9684 14.7949 23.9684 18.2618H30.3409H36.7134C36.7134 14.7949 33.8604 11.9844 30.3409 11.9844Z" fill="#ECB492"/>
<rect x="24.9196" y="19.4031" width="8.94055" height="0.760898" rx="0.380449" fill="#ECB492"/>
<rect x="26.4414" y="21.876" width="10.2721" height="0.760898" rx="0.380449" fill="#ECB492"/>
</svg>
