<svg width="48" height="48" viewBox="0 0 48 48" fill="none" xmlns="http://www.w3.org/2000/svg">
<path d="M13 20.0001C12.554 20.0001 12.126 20.0681 11.7 20.1301C11.838 19.6661 11.98 19.1941 12.208 18.7701C12.436 18.1541 12.792 17.6201 13.146 17.0821C13.442 16.5001 13.964 16.1061 14.348 15.6081C14.75 15.1241 15.298 14.8021 15.732 14.4001C16.158 13.9801 16.716 13.7701 17.16 13.4741C17.624 13.2081 18.028 12.9141 18.46 12.7741L19.538 12.3301L20.486 11.9361L19.516 8.06006L18.322 8.34806C17.94 8.44406 17.474 8.55606 16.944 8.69006C16.402 8.79006 15.824 9.06406 15.18 9.31406C14.544 9.59806 13.808 9.79006 13.124 10.2461C12.436 10.6821 11.642 11.0461 10.942 11.6301C10.264 12.2321 9.44598 12.7541 8.84198 13.5201C8.18198 14.2361 7.52999 14.9881 7.02399 15.8441C6.43799 16.6601 6.03998 17.5561 5.61998 18.4421C5.23999 19.3281 4.93399 20.2341 4.68399 21.1141C4.20999 22.8781 3.99799 24.5541 3.91599 25.9881C3.84799 27.4241 3.88799 28.6181 3.97199 29.4821C4.00199 29.8901 4.05799 30.2861 4.09799 30.5601L4.14799 30.8961L4.19999 30.8841C4.55571 32.5457 5.37459 34.0727 6.56191 35.2884C7.74923 36.5041 9.25647 37.3588 10.9093 37.7537C12.5621 38.1486 14.2929 38.0674 15.9015 37.5197C17.5101 36.972 18.9308 35.98 19.9992 34.6586C21.0676 33.3372 21.7401 31.7403 21.9388 30.0526C22.1376 28.365 21.8545 26.6556 21.1222 25.1221C20.39 23.5886 19.2387 22.2938 17.8013 21.3874C16.3639 20.4809 14.6993 19.9999 13 20.0001ZM35 20.0001C34.554 20.0001 34.126 20.0681 33.7 20.1301C33.838 19.6661 33.98 19.1941 34.208 18.7701C34.436 18.1541 34.792 17.6201 35.146 17.0821C35.442 16.5001 35.964 16.1061 36.348 15.6081C36.75 15.1241 37.298 14.8021 37.732 14.4001C38.158 13.9801 38.716 13.7701 39.16 13.4741C39.624 13.2081 40.028 12.9141 40.46 12.7741L41.538 12.3301L42.486 11.9361L41.516 8.06006L40.322 8.34806C39.94 8.44406 39.474 8.55606 38.944 8.69006C38.402 8.79006 37.824 9.06406 37.18 9.31406C36.546 9.60006 35.808 9.79006 35.124 10.2481C34.436 10.6841 33.642 11.0481 32.942 11.6321C32.264 12.2341 31.446 12.7561 30.842 13.5201C30.182 14.2361 29.53 14.9881 29.024 15.8441C28.438 16.6601 28.04 17.5561 27.62 18.4421C27.24 19.3281 26.934 20.2341 26.684 21.1141C26.21 22.8781 25.998 24.5541 25.916 25.9881C25.848 27.4241 25.888 28.6181 25.972 29.4821C26.002 29.8901 26.058 30.2861 26.098 30.5601L26.148 30.8961L26.2 30.8841C26.5557 32.5457 27.3746 34.0727 28.5619 35.2884C29.7492 36.5041 31.2565 37.3588 32.9093 37.7537C34.5621 38.1486 36.2929 38.0674 37.9015 37.5197C39.5101 36.972 40.9308 35.98 41.9992 34.6586C43.0676 33.3372 43.7401 31.7403 43.9388 30.0526C44.1376 28.365 43.8545 26.6556 43.1222 25.1221C42.39 23.5886 41.2387 22.2938 39.8013 21.3874C38.3639 20.4809 36.6993 19.9999 35 20.0001Z" fill="#CAB8AB" fill-opacity="0.58"/>
</svg>
